<?xml version="1.0" standalone="no"?>
<!DOCTYPE svg PUBLIC "-//W3C//DTD SVG 20010904//EN"
 "http://www.w3.org/TR/2001/REC-SVG-20010904/DTD/svg10.dtd">
<svg version="1.0" xmlns="http://www.w3.org/2000/svg"
 width="254.000000pt" height="163.000000pt" viewBox="0 0 254.000000 163.000000"
 preserveAspectRatio="xMidYMid meet">

<g transform="translate(0.000000,163.000000) scale(0.100000,-0.100000)"
fill="#000000" stroke="none">
<path d="M996 1205 c-51 -40 -60 -40 -18 0 l27 27 -50 -25 c-62 -31 -275 -248
-275 -281 0 -42 -41 45 -55 117 -16 82 -30 102 -45 63 -12 -31 -11 -68 1 -111
6 -23 7 -19 4 20 -3 32 -1 44 4 35 14 -23 15 -62 4 -90 -11 -27 -10 -31 -42
125 l-8 40 -12 -29 c-7 -17 -10 -50 -8 -75 5 -56 -4 -88 -14 -51 -7 24 -7 24
-8 -4 -1 -41 27 -153 51 -200 16 -32 17 -38 4 -33 -11 5 -30 -23 -76 -114 -34
-67 -59 -123 -56 -126 2 -3 1 -15 -4 -27 -6 -18 -5 -23 8 -23 18 0 61 45 62
64 0 6 5 15 12 19 7 4 8 3 4 -4 -4 -7 -4 -12 0 -12 10 0 52 47 81 91 14 22 26
39 27 39 1 0 45 -43 99 -95 53 -52 101 -95 106 -95 5 0 23 -11 39 -24 20 -17
29 -21 29 -11 0 8 -5 11 -10 8 -6 -4 -7 -1 -3 6 6 9 13 8 27 -5 18 -16 19 -16
19 4 0 11 -3 22 -7 24 -5 2 -21 19 -38 38 -16 19 -22 28 -12 21 24 -19 33 -6
18 26 -11 24 -10 29 5 38 10 5 40 31 68 56 41 39 48 50 43 71 -4 15 -22 35
-42 47 -46 27 -46 59 0 109 19 22 32 42 28 45 -3 4 0 14 8 23 13 16 12 16 -9
5 -13 -7 -30 -10 -39 -7 -27 11 -123 -107 -123 -151 0 -12 14 -32 33 -47 17
-15 37 -31 44 -36 7 -6 10 -16 7 -23 -7 -18 -62 -50 -77 -44 -20 7 -89 126
-81 138 3 6 1 15 -6 19 -11 7 -10 14 5 37 10 15 25 35 34 44 9 9 56 62 105
118 49 56 97 106 108 112 10 5 18 15 18 21 0 6 8 17 18 25 9 9 4 7 -13 -3 -16
-9 -47 -36 -67 -58 -20 -23 -37 -38 -38 -33 0 4 27 37 60 72 33 35 60 73 60
83 0 10 5 23 12 30 23 23 0 11 -46 -23z m-516 -665 c-12 -23 -16 -24 -26 -8
-4 6 -3 8 3 5 6 -4 13 0 17 8 3 8 8 15 11 15 3 0 1 -9 -5 -20z m-26 -28 c3 -5
-1 -9 -9 -9 -8 0 -12 4 -9 9 3 4 7 8 9 8 2 0 6 -4 9 -8z m-11 -37 c-3 -9 -8
-14 -10 -11 -3 3 -2 9 2 15 9 16 15 13 8 -4z m415 -25 c17 -27 10 -25 -19 6
-13 14 -17 23 -9 19 9 -3 21 -14 28 -25z"/>
<path d="M1115 923 c-31 -8 -72 -40 -72 -57 0 -8 6 -12 13 -9 8 3 12 10 11 15
-1 6 5 13 13 15 13 4 13 3 0 -6 -13 -10 -13 -11 0 -11 10 0 6 -7 -11 -23 -21
-17 -29 -38 -40 -97 -15 -90 -14 -162 3 -192 l13 -23 3 23 c2 12 10 22 18 22
8 0 14 11 15 28 1 43 10 57 65 98 62 47 124 119 124 144 0 37 -42 72 -90 75
-25 2 -54 1 -65 -2z m45 -52 c0 -5 8 -8 18 -7 24 2 17 -30 -15 -69 -51 -60
-58 -59 -55 4 2 31 5 62 7 69 5 14 45 17 45 3z"/>
<path d="M1128 863 c7 -3 16 -2 19 1 4 3 -2 6 -13 5 -11 0 -14 -3 -6 -6z"/>
<path d="M1635 923 c-31 -8 -72 -40 -72 -57 0 -11 5 -13 18 -5 32 17 35 9 5
-14 -23 -19 -34 -41 -48 -98 -25 -100 -30 -156 -17 -181 l12 -21 11 21 c6 11
16 21 21 21 6 0 11 9 13 20 2 10 14 22 26 25 24 6 81 -9 103 -26 7 -6 17 -8
22 -6 18 6 -12 52 -44 68 -17 8 -31 20 -31 25 -1 6 28 36 64 68 47 41 73 57
93 57 16 0 29 -2 29 -5 0 -2 -7 -30 -15 -62 -16 -61 -18 -142 -5 -183 l8 -25
7 23 c4 12 11 22 15 22 4 0 10 18 14 40 3 22 11 40 17 40 6 0 8 9 4 19 -8 25
5 77 15 61 5 -8 10 -2 14 15 4 15 5 30 1 33 -3 3 -5 -3 -5 -13 0 -10 -3 -15
-6 -12 -8 8 15 67 32 84 7 7 20 10 29 7 10 -4 21 -1 26 7 6 10 11 11 19 3 9
-9 7 -15 -8 -25 -22 -16 -42 -51 -42 -73 0 -18 36 -58 68 -75 33 -18 27 -35
-26 -74 -46 -33 -64 -67 -36 -67 58 0 174 90 174 135 0 13 -15 34 -40 54 -22
17 -40 41 -40 51 0 11 14 36 32 56 58 66 54 70 -81 68 -75 -2 -139 -9 -176
-19 -39 -12 -60 -14 -64 -7 -15 25 -84 38 -136 25z m15 -54 c-11 -8 -6 -9 22
-5 21 2 40 1 43 -3 7 -12 -47 -83 -76 -103 l-25 -16 12 67 c7 36 13 67 13 69
1 1 7 2 14 2 8 0 7 -4 -3 -11z"/>
<path d="M1344 898 c-12 -13 -13 -18 -4 -13 13 8 13 7 0 -9 -14 -17 -13 -18
18 -11 46 10 62 -7 62 -63 0 -47 -29 -120 -57 -143 -13 -11 -17 -10 -29 6 -15
20 -19 111 -6 117 5 2 5 17 0 35 -6 23 -13 31 -23 27 -20 -8 -45 -96 -45 -160
0 -46 4 -55 31 -78 40 -34 79 -33 114 2 16 15 25 20 20 12 -8 -13 -7 -13 8 -1
19 15 23 26 6 15 -7 -4 -10 -1 -7 7 3 8 10 13 16 12 7 -2 9 4 5 14 -4 11 -3
14 5 9 8 -5 10 -1 5 10 -4 11 -3 15 4 11 7 -5 9 1 5 15 -3 11 -1 19 4 16 5 -3
10 23 12 58 3 62 2 66 -31 99 -42 42 -84 46 -113 13z"/>
</g>
</svg>
